<svg width="1066" height="654" viewBox="0 0 1066 654" xmlns="http://www.w3.org/2000/svg">
  <defs>
    <pattern id="diagonal" width="22" height="22" patternUnits="userSpaceOnUse" patternTransform="rotate(45)">
      <rect width="22" height="22" fill="#f5efe3"></rect>
      <rect width="7" height="22" fill="#efe7d8" opacity="0.72"></rect>
    </pattern>
    <filter id="shadow" x="-20%" y="-20%" width="140%" height="140%">
      <feDropShadow dx="0" dy="3" stdDeviation="3" flood-color="#000" flood-opacity="0.10"></feDropShadow>
    </filter>
    <marker id="arrow" markerWidth="8" markerHeight="8" refX="7" refY="4" orient="auto" markerUnits="strokeWidth">
      <path d="M0,0 L8,4 L0,8 z" fill="#9b907f"></path>
    </marker>
    <marker id="arrowGreen" markerWidth="8" markerHeight="8" refX="7" refY="4" orient="auto" markerUnits="strokeWidth">
      <path d="M0,0 L8,4 L0,8 z" fill="#18845f"></path>
    </marker>
    
  </defs>

  <rect width="1066" height="654" rx="12" fill="url(#diagonal)"></rect>
  <rect x="1" y="1" width="1064" height="652" rx="12" fill="none" stroke="#d9ccb4" stroke-dasharray="4 4"></rect>

  <text x="44" y="52" class="font sub">MYCREWSOFT · SYSTEM ARCHITECTURE</text>
  <text x="44" y="90" class="font title">그룹웨어 통합 아키텍처</text>
  <text x="44" y="116" class="font text">프론트엔드, Spring Boot API, 실시간 통신, 데이터 저장소, 외부 API 연동 구조</text>

  
  <g filter="url(#shadow)">
    <rect x="56" y="168" width="190" height="158" rx="14" fill="#fffdf8" stroke="#ddd0b8"></rect>
    <rect x="56" y="168" width="190" height="38" rx="14" fill="#18845f"></rect>
    <rect x="56" y="194" width="190" height="12" fill="#18845f"></rect>
    <text x="151" y="192" text-anchor="middle" class="font" fill="#fff" font-size="14" font-weight="800">CLIENT</text>
    <text x="78" y="232" class="font label">React Web</text>
    <text x="78" y="256" class="font text">React · TypeScript · Vite</text>
    <text x="78" y="277" class="font text">Tailwind CSS · Axios</text>
    <text x="78" y="298" class="font text">JWT Access Token 첨부</text>
  </g>

  <g filter="url(#shadow)">
    <rect x="318" y="168" width="190" height="158" rx="14" fill="#fffdf8" stroke="#ddd0b8"></rect>
    <rect x="318" y="168" width="190" height="38" rx="14" fill="#24221f"></rect>
    <rect x="318" y="194" width="190" height="12" fill="#24221f"></rect>
    <text x="413" y="192" text-anchor="middle" class="font" fill="#f2bd30" font-size="14" font-weight="800">WEB / API GATEWAY</text>
    <text x="340" y="232" class="font label">Nginx Reverse Proxy</text>
    <text x="340" y="256" class="font text">정적 파일 서빙 · API 프록시</text>
    <text x="340" y="277" class="font text">HTTPS · CORS · 라우팅 분리</text>
    <text x="340" y="298" class="font text">/api, /ws, /sse 경로 전달</text>
  </g>

  <g filter="url(#shadow)">
    <rect x="580" y="148" width="260" height="198" rx="16" fill="#fffdf8" stroke="#ddd0b8"></rect>
    <rect x="580" y="148" width="260" height="42" rx="16" fill="#18845f"></rect>
    <rect x="580" y="176" width="260" height="14" fill="#18845f"></rect>
    <text x="710" y="174" text-anchor="middle" class="font" fill="#fff" font-size="15" font-weight="800">SPRING BOOT API</text>
    <text x="606" y="220" class="font label">Java 21 · Spring Boot</text>
    <text x="606" y="245" class="font text">Controller → Service → Mapper</text>
    <text x="606" y="267" class="font text">Spring Security · JWT · RBAC</text>
    <text x="606" y="289" class="font text">MyBatis · MapStruct · Swagger</text>
    <text x="606" y="311" class="font text">GlobalExceptionHandler · ApiResponse</text>
    <rect x="606" y="324" width="68" height="20" rx="10" fill="#efe7d8"></rect>
    <text x="640" y="338" text-anchor="middle" class="font tiny">REST</text>
    <rect x="682" y="324" width="75" height="20" rx="10" fill="#efe7d8"></rect>
    <text x="719" y="338" text-anchor="middle" class="font tiny">STOMP</text>
    <rect x="765" y="324" width="50" height="20" rx="10" fill="#efe7d8"></rect>
    <text x="790" y="338" text-anchor="middle" class="font tiny">SSE</text>
  </g>

  
  <line x1="246" y1="247" x2="318" y2="247" stroke="#9b907f" stroke-width="2" marker-end="url(#arrow)"></line>
  <text x="282" y="233" text-anchor="middle" class="font tiny">HTTP / WS</text>
  <line x1="508" y1="247" x2="580" y2="247" stroke="#9b907f" stroke-width="2" marker-end="url(#arrow)"></line>
  <text x="544" y="233" text-anchor="middle" class="font tiny">Proxy</text>

  
  <g>
    <rect x="76" y="390" width="744" height="144" rx="16" fill="#f8f2e7" stroke="#d8ccb5"></rect>
    <text x="104" y="422" class="font section">핵심 모듈 구성</text>

    <g>
      <rect x="104" y="448" width="102" height="46" rx="10" fill="#fffdf8" stroke="#d9ccb4"></rect>
      <text x="155" y="468" text-anchor="middle" class="font label">회의/화상</text>
      <text x="155" y="486" text-anchor="middle" class="font small">LiveKit 연동</text>
    </g>
    <g>
      <rect x="224" y="448" width="102" height="46" rx="10" fill="#fffdf8" stroke="#d9ccb4"></rect>
      <text x="275" y="468" text-anchor="middle" class="font label">일정/업무</text>
      <text x="275" y="486" text-anchor="middle" class="font small">캘린더 · 진척률</text>
    </g>
    <g>
      <rect x="344" y="448" width="102" height="46" rx="10" fill="#fffdf8" stroke="#d9ccb4"></rect>
      <text x="395" y="468" text-anchor="middle" class="font label">메신저</text>
      <text x="395" y="486" text-anchor="middle" class="font small">STOMP 실시간</text>
    </g>
    <g>
      <rect x="464" y="448" width="102" height="46" rx="10" fill="#fffdf8" stroke="#d9ccb4"></rect>
      <text x="515" y="468" text-anchor="middle" class="font label">알림</text>
      <text x="515" y="486" text-anchor="middle" class="font small">SSE Push</text>
    </g>
    <g>
      <rect x="584" y="448" width="102" height="46" rx="10" fill="#fffdf8" stroke="#d9ccb4"></rect>
      <text x="635" y="468" text-anchor="middle" class="font label">결재</text>
      <text x="635" y="486" text-anchor="middle" class="font small">문서 승인</text>
    </g>
    <g>
      <rect x="704" y="448" width="88" height="46" rx="10" fill="#fffdf8" stroke="#d9ccb4"></rect>
      <text x="748" y="468" text-anchor="middle" class="font label">관리자</text>
      <text x="748" y="486" text-anchor="middle" class="font small">운영 관리</text>
    </g>
  </g>

  
  <g filter="url(#shadow)">
    <rect x="884" y="148" width="136" height="198" rx="16" fill="#24221f"></rect>
    <text x="952" y="176" text-anchor="middle" class="font" fill="#f2bd30" font-size="15" font-weight="800">DATA STORE</text>
    <rect x="904" y="204" width="96" height="42" rx="10" fill="#fffdf8"></rect>
    <text x="952" y="226" text-anchor="middle" class="font label">Oracle DB</text>
    <text x="952" y="240" text-anchor="middle" class="font tiny">업무 데이터</text>
    <rect x="904" y="262" width="96" height="42" rx="10" fill="#fffdf8"></rect>
    <text x="952" y="284" text-anchor="middle" class="font label">Redis</text>
    <text x="952" y="298" text-anchor="middle" class="font tiny">Refresh Token</text>
    <text x="952" y="326" text-anchor="middle" class="font" fill="#d8d0bf" font-size="10">트랜잭션 데이터와 인증 상태 분리</text>
  </g>
  <line x1="840" y1="247" x2="884" y2="247" stroke="#18845f" stroke-width="2.2" marker-end="url(#arrowGreen)"></line>

  
  <g filter="url(#shadow)">
    <rect x="884" y="390" width="136" height="144" rx="16" fill="#fffdf8" stroke="#ddd0b8"></rect>
    <text x="952" y="418" text-anchor="middle" class="font section">EXTERNAL</text>
    <rect x="903" y="442" width="98" height="24" rx="12" fill="#f8f2e7" stroke="#d9ccb4"></rect>
    <text x="952" y="459" text-anchor="middle" class="font small">LiveKit</text>
    <rect x="903" y="474" width="98" height="24" rx="12" fill="#f8f2e7" stroke="#d9ccb4"></rect>
    <text x="952" y="491" text-anchor="middle" class="font small">OpenAI Whisper</text>
    <rect x="903" y="506" width="98" height="24" rx="12" fill="#f8f2e7" stroke="#d9ccb4"></rect>
    <text x="952" y="523" text-anchor="middle" class="font small">공공 API</text>
  </g>
  <path d="M710 346 C710 386, 842 426, 884 462" fill="none" stroke="#9b907f" stroke-width="2" stroke-dasharray="6 6" marker-end="url(#arrow)"></path>
  <text x="789" y="394" class="font tiny">화상 · STT · 일정 데이터 연동</text>

  
  <rect x="56" y="574" width="964" height="34" rx="10" fill="#eee7da" stroke="#d8ccb5"></rect>
  <text x="538" y="596" text-anchor="middle" class="font small">React + TypeScript · Spring Boot · MyBatis · Oracle · Redis · LiveKit · Whisper · WebSocket/STOMP · SSE</text>
</svg>